<?xml version="1.0" encoding="utf-8"?>
<!-- Generator: Adobe Illustrator 16.0.0, SVG Export Plug-In . SVG Version: 6.00 Build 0)  -->
<!DOCTYPE svg PUBLIC "-//W3C//DTD SVG 1.1//EN" "http://www.w3.org/Graphics/SVG/1.1/DTD/svg11.dtd">
<svg version="1.1" id="Layer_1" xmlns="http://www.w3.org/2000/svg" xmlns:xlink="http://www.w3.org/1999/xlink" x="0px" y="0px"
	 width="46.808px" height="51.733px" viewBox="0 0 46.808 51.733" enable-background="new 0 0 46.808 51.733" xml:space="preserve">
<g>
	<polygon fill="#28A5DF" points="23.404,16 30.241,3 16.567,3 	"/>
</g>
<g>
	<polygon fill="#FFFFFF" points="46.808,0 36.105,0 23.404,23.25 10.702,0 0,0 16.567,31.5 30.241,31.5 	"/>
</g>
<g>
	<path fill="#FFFFFF" d="M1.144,38l2.116,5.946L5.406,38h0.975l-2.55,6.94H2.699L0.16,38H1.144z"/>
	<path fill="#FFFFFF" d="M10.959,38v6.94h-0.896V38H10.959z"/>
	<path fill="#FFFFFF" d="M18.97,44.94l-1.811-2.835h-0.975v2.835h-0.896V38h2.284c0.787,0,1.378,0.189,1.771,0.566
		c0.394,0.377,0.591,0.877,0.591,1.501c0,0.564-0.158,1.019-0.473,1.363s-0.771,0.559-1.368,0.645l1.89,2.864H18.97z M16.184,41.456
		h1.31c1.017,0,1.525-0.446,1.525-1.339c0-0.893-0.509-1.339-1.525-1.339h-1.31V41.456z"/>
	<path fill="#FFFFFF" d="M28.066,38v0.728h-1.959v6.212h-0.896v-6.212h-1.958V38H28.066z"/>
	<path fill="#FFFFFF" d="M32.609,38v4.165c0,0.683,0.151,1.186,0.453,1.511c0.302,0.325,0.719,0.487,1.25,0.487
		c0.525,0,0.935-0.164,1.231-0.492c0.295-0.329,0.443-0.83,0.443-1.506V38h0.896v4.165c0,0.945-0.235,1.655-0.704,2.13
		c-0.47,0.477-1.098,0.714-1.885,0.714c-0.781,0-1.406-0.237-1.875-0.714c-0.469-0.475-0.703-1.186-0.703-2.13V38H32.609z"/>
	<path fill="#FFFFFF" d="M44.861,43.336H41.81l-0.581,1.604h-0.965l2.569-6.812h1.014l2.56,6.812h-0.965L44.861,43.336z
		 M44.605,42.637l-1.27-3.504l-1.27,3.504H44.605z"/>
</g>
<g>
	<path fill="#28A5DF" d="M10.389,50.388v1.345h-0.325v-3.227h0.965c0.363,0,0.634,0.085,0.813,0.252
		c0.178,0.168,0.268,0.398,0.268,0.69c0,0.299-0.092,0.531-0.277,0.694c-0.185,0.164-0.452,0.245-0.803,0.245H10.389z
		 M11.601,49.941c0.122-0.114,0.183-0.278,0.183-0.492c0-0.219-0.061-0.386-0.183-0.5c-0.123-0.114-0.322-0.171-0.599-0.171h-0.613
		v1.336h0.613C11.279,50.113,11.479,50.056,11.601,49.941z"/>
	<path fill="#28A5DF" d="M15.703,51.733l-0.883-1.345h-0.521v1.345h-0.325v-3.227h0.989c0.363,0,0.633,0.086,0.812,0.257
		c0.178,0.171,0.268,0.401,0.268,0.691c0,0.269-0.075,0.482-0.227,0.641c-0.151,0.159-0.37,0.253-0.657,0.284l0.911,1.354H15.703z
		 M14.298,50.145h0.641c0.518,0,0.778-0.224,0.778-0.672c0-0.458-0.26-0.687-0.778-0.687h-0.641V50.145z"/>
	<path fill="#28A5DF" d="M18.33,48.768v1.217h1.258v0.252H18.33v1.23h1.396v0.265h-1.721v-3.227h1.721v0.262H18.33z"/>
	<path fill="#28A5DF" d="M24.756,48.576v3.157h-0.32v-2.644l-1.094,2.644h-0.288l-1.098-2.635v2.635h-0.325v-3.157h0.38l1.189,2.759
		l1.181-2.759H24.756z"/>
	<path fill="#28A5DF" d="M27.213,48.506v3.227h-0.325v-3.227H27.213z"/>
	<path fill="#28A5DF" d="M29.642,48.506v1.955c0,0.345,0.076,0.598,0.227,0.76s0.358,0.243,0.62,0.243
		c0.263,0,0.468-0.081,0.616-0.243s0.222-0.415,0.222-0.76v-1.955h0.32v1.955c0,0.437-0.105,0.763-0.316,0.979
		c-0.21,0.217-0.493,0.326-0.847,0.326c-0.354,0-0.636-0.109-0.847-0.326c-0.21-0.216-0.316-0.542-0.316-0.979v-1.955H29.642z"/>
	<path fill="#28A5DF" d="M36.881,48.576v3.157h-0.32v-2.644l-1.093,2.644h-0.289l-1.098-2.635v2.635h-0.325v-3.157h0.38l1.19,2.759
		l1.18-2.759H36.881z"/>
</g>
</svg>
